<svg width="18" height="18" viewBox="0 0 18 18" fill="none" xmlns="http://www.w3.org/2000/svg">
<path d="M6.375 6.375L11.625 11.625M6.375 11.625L11.625 6.375M9 15.75C10.7902 15.75 12.5071 15.0388 13.773 13.773C15.0388 12.5071 15.75 10.7902 15.75 9C15.75 7.20979 15.0388 5.4929 13.773 4.22703C12.5071 2.96116 10.7902 2.25 9 2.25C7.20979 2.25 5.4929 2.96116 4.22703 4.22703C2.96116 5.4929 2.25 7.20979 2.25 9C2.25 10.7902 2.96116 12.5071 4.22703 13.773C5.4929 15.0388 7.20979 15.75 9 15.75Z" stroke="#12B891" stroke-linecap="round" stroke-linejoin="round"/>
</svg>
