<svg width="28" height="28" viewBox="0 0 28 28" fill="none" xmlns="http://www.w3.org/2000/svg">
<path d="M16.3334 3.5V8.16667C16.3334 8.47609 16.4563 8.77283 16.6751 8.99162C16.8939 9.21042 17.1906 9.33333 17.5 9.33333H22.1667" stroke="#F4F4F4" stroke-width="1.5" stroke-linecap="round" stroke-linejoin="round"/>
<path d="M10.5 19.8333H17.5M10.5 15.1667H17.5M19.8334 24.5H8.16671C7.54787 24.5 6.95438 24.2542 6.51679 23.8166C6.07921 23.379 5.83337 22.7855 5.83337 22.1667V5.83333C5.83337 5.21449 6.07921 4.621 6.51679 4.18342C6.95438 3.74583 7.54787 3.5 8.16671 3.5H16.3334L22.1667 9.33333V22.1667C22.1667 22.7855 21.9209 23.379 21.4833 23.8166C21.0457 24.2542 20.4522 24.5 19.8334 24.5Z" stroke="#F4F4F4" stroke-width="1.5" stroke-linecap="round" stroke-linejoin="round"/>
</svg>
