<svg width="28" height="28" viewBox="0 0 28 28" fill="none" xmlns="http://www.w3.org/2000/svg">
<path d="M4.66663 16.3333V12.8333C4.66663 10.358 5.64996 7.98401 7.4003 6.23367C9.15064 4.48333 11.5246 3.5 14 3.5C16.4753 3.5 18.8493 4.48333 20.5996 6.23367C22.35 7.98401 23.3333 10.358 23.3333 12.8333V16.3333M21 22.1667C21 24.0998 17.8663 25.6667 14 25.6667" stroke="#F4F4F4" stroke-width="1.5" stroke-linecap="round" stroke-linejoin="round"/>
<path d="M4.66663 16.3333C4.66663 15.7145 4.91246 15.121 5.35004 14.6834C5.78763 14.2458 6.38112 14 6.99996 14H8.16663C8.78546 14 9.37896 14.2458 9.81654 14.6834C10.2541 15.121 10.5 15.7145 10.5 16.3333V19.8333C10.5 20.4522 10.2541 21.0457 9.81654 21.4832C9.37896 21.9208 8.78546 22.1667 8.16663 22.1667H6.99996C6.38112 22.1667 5.78763 21.9208 5.35004 21.4832C4.91246 21.0457 4.66663 20.4522 4.66663 19.8333V16.3333ZM17.5 16.3333C17.5 15.7145 17.7458 15.121 18.1834 14.6834C18.621 14.2458 19.2145 14 19.8333 14H21C21.6188 14 22.2123 14.2458 22.6499 14.6834C23.0875 15.121 23.3333 15.7145 23.3333 16.3333V19.8333C23.3333 20.4522 23.0875 21.0457 22.6499 21.4832C22.2123 21.9208 21.6188 22.1667 21 22.1667H19.8333C19.2145 22.1667 18.621 21.9208 18.1834 21.4832C17.7458 21.0457 17.5 20.4522 17.5 19.8333V16.3333Z" stroke="#F4F4F4" stroke-width="1.5" stroke-linecap="round" stroke-linejoin="round"/>
</svg>
