<svg width="32" height="32" viewBox="0 0 32 32" fill="none" xmlns="http://www.w3.org/2000/svg">
<path d="M11.9997 14.6667C13.4724 14.6667 14.6663 13.4728 14.6663 12C14.6663 10.5273 13.4724 9.33337 11.9997 9.33337C10.5269 9.33337 9.33301 10.5273 9.33301 12C9.33301 13.4728 10.5269 14.6667 11.9997 14.6667Z" stroke="#687473" stroke-width="2"/>
<path d="M17.3332 20C17.3332 21.4734 17.3332 22.6667 11.9998 22.6667C6.6665 22.6667 6.6665 21.4734 6.6665 20C6.6665 18.5267 9.05317 17.3334 11.9998 17.3334C14.9465 17.3334 17.3332 18.5267 17.3332 20Z" stroke="#687473" stroke-width="2"/>
<path d="M2.6665 16C2.6665 10.972 2.6665 8.45737 4.22917 6.89604C5.7905 5.33337 8.30517 5.33337 13.3332 5.33337H18.6665C23.6945 5.33337 26.2092 5.33337 27.7705 6.89604C29.3332 8.45737 29.3332 10.972 29.3332 16C29.3332 21.028 29.3332 23.5427 27.7705 25.104C26.2092 26.6667 23.6945 26.6667 18.6665 26.6667H13.3332C8.30517 26.6667 5.7905 26.6667 4.22917 25.104C2.6665 23.5427 2.6665 21.028 2.6665 16Z" stroke="#687473" stroke-width="2"/>
<path d="M25.3332 16H19.9998M25.3332 12H18.6665M25.3332 20H21.3332" stroke="#687473" stroke-width="2" stroke-linecap="round"/>
</svg>
