<svg width="28" height="28" viewBox="0 0 28 28" fill="none" xmlns="http://www.w3.org/2000/svg">
<path d="M4.66663 21.0002C4.66663 19.7625 5.15829 18.5755 6.03346 17.7003C6.90863 16.8252 8.09562 16.3335 9.33329 16.3335H18.6666C19.9043 16.3335 21.0913 16.8252 21.9665 17.7003C22.8416 18.5755 23.3333 19.7625 23.3333 21.0002C23.3333 21.619 23.0875 22.2125 22.6499 22.6501C22.2123 23.0877 21.6188 23.3335 21 23.3335H6.99996C6.38112 23.3335 5.78763 23.0877 5.35004 22.6501C4.91246 22.2125 4.66663 21.619 4.66663 21.0002Z" stroke="#F4F4F4" stroke-width="1.5" stroke-linejoin="round"/>
<path d="M14 11.6667C15.933 11.6667 17.5 10.0997 17.5 8.16675C17.5 6.23375 15.933 4.66675 14 4.66675C12.067 4.66675 10.5 6.23375 10.5 8.16675C10.5 10.0997 12.067 11.6667 14 11.6667Z" stroke="#F4F4F4" stroke-width="1.5"/>
</svg>
