<svg width="28" height="28" viewBox="0 0 28 28" fill="none" xmlns="http://www.w3.org/2000/svg">
<path d="M14 3.5C16.7251 5.911 20.2819 7.16633 23.9167 7C24.4459 8.80018 24.6078 10.6884 24.3928 12.5524C24.1779 14.4164 23.5904 16.2181 22.6653 17.8506C21.7402 19.4831 20.4965 20.9129 19.0079 22.0552C17.5193 23.1975 15.8163 24.0289 14 24.5C12.1838 24.0289 10.4807 23.1975 8.99215 22.0552C7.50356 20.9129 6.25977 19.4831 5.33471 17.8506C4.40964 16.2181 3.82217 14.4164 3.6072 12.5524C3.39223 10.6884 3.55415 8.80018 4.08334 7C7.71813 7.16633 11.2749 5.911 14 3.5Z" stroke="#F4F4F4" stroke-width="1.5" stroke-linecap="round" stroke-linejoin="round"/>
<path d="M14 14.0001C13.6906 14.0001 13.3939 13.8772 13.1751 13.6584C12.9563 13.4396 12.8334 13.1428 12.8334 12.8334C12.8334 12.524 12.9563 12.2272 13.1751 12.0085C13.3939 11.7897 13.6906 11.6667 14 11.6667C14.3095 11.6667 14.6062 11.7897 14.825 12.0085C15.0438 12.2272 15.1667 12.524 15.1667 12.8334C15.1667 13.1428 15.0438 13.4396 14.825 13.6584C14.6062 13.8772 14.3095 14.0001 14 14.0001ZM14 14.0001V16.9167" stroke="#F4F4F4" stroke-width="1.5" stroke-linecap="round" stroke-linejoin="round"/>
</svg>
